<?xml version="1.0" encoding="utf-8"?>
<?xml-stylesheet type="text/xsl" href="rss1.xsl"?>
<rss version="2.0" xmlns:atom="http://www.w3.org/2005/Atom" xmlns:content="http://purl.org/rss/1.0/modules/content/" xmlns:dc="http://purl.org/dc/elements/1.1/" xmlns:media="http://search.yahoo.com/mrss/">
<channel>
 <title>Getty</title>
 <link>http://www.gettyimg.com/</link>
 <atom:link href="http://www.gettyimg.com/" rel="self" type="application/rss+xml" />

 
                <item>
                <title><![CDATA[【HD Live Performances】WEB-DL - Zara Larsson - 'Venus Tour’ Live Concert Stream 1080p WEB-DL AAC 2.0 H264 -IDK]]></title>
                <link><![CDATA[https://sharemania.us/threads/zara-larsson-venus-tour%E2%80%99-live-concert-stream-1080p-web-dl-aac-2-0-h264-idk.241430/]]></link>
                <description><![CDATA[<article>
<blockquote class="messageText SelectQuoteContainer ugc baseHtml">
Zara Larsson - 'Venus Tour’ Live Concert Stream 1080p WEB-DL AAC 2.0 H264 -IDK<br>
<br>
<div class="ToggleTriggerAnchor bbCodeSpoilerContainer">
<button type="button" class="button bbCodeSpoilerButton ToggleTrigger Tooltip JsOnly" data-target="> .SpoilerTarget"><span>Spoiler: <span class="SpoilerTitle">MediaInfo</span></span></button>
<div class="SpoilerTarget bbCodeSpoilerText">General<br>
Unique ID : 118860436087510584963772261361982146151 (0x596BAFF34FB30077F68180D71AE08667)<br>
Complete name : Zara.Larsson.Venus.Tour.Live.Concert.Stream.1080p.WEB-DL.AAC.2.0.H264-IDK.mkv<br>
Format : Matroska<br>
Format version : Version 4<br>
File size : 4.20 GiB<br>
Duration : 1 h 14 min<br>
Overall bit rate : 8 085 kb/s<br>
Frame rate : 25.000 FPS<br>
Encoded date : 2024-04-05 00:55:28 UTC<br>
Writing application : mkvmerge v60.0.0 ('Are We Copies?') 64-bit<br>
Writing library : libebml v1.4.2 + libmatroska v1.6.4<br>
<br>
Video<br>
ID : 1<br>
Format : AVC<br>
Format/Info : Advanced Video Codec<br>
Format profile : High@L5<br>
Format settings : CABAC / 5 Ref Frames<br>
Format settings, CABAC : Yes<br>
Format settings, Reference frames : 5 frames<br>
Codec ID : V_MPEG4/ISO/AVC<br>
Duration : 1 h 14 min<br>
Bit rate : 8 000 kb/s<br>
Width : 1 920 pixels<br>
Height : 1 080 pixels<br>
Display aspect ratio : 16:9<br>
Frame rate mode : Constant<br>
Frame rate : 25.000 FPS<br>
Color space : YUV<br>
Chroma subsampling : 4:2:0<br>
Bit depth : 8 bits<br>
Scan type : Progressive<br>
Bits/(Pixel*Frame) : 0.154<br>
Stream size : 4.13 GiB (98%)<br>
Writing library : x264 core 164 r3106 eaa68fa<br>
Encoding settings : cabac=1 / ref=5 / deblock=1:0:0 / analyse=0x3:0x113 / me=hex / subme=8 / psy=1 / psy_rd=1.00:0.00 / mixed_ref=1 / me_range=16 / chroma_me=1 / trellis=2 / 8x8dct=1 / cqm=0 / deadzone=21,11 / fast_pskip=1 / chroma_qp_offset=-2 / threads=34 / lookahead_threads=5 / sliced_threads=0 / nr=0 / decimate=1 / interlaced=0 / bluray_compat=0 / constrained_intra=0 / bframes=3 / b_pyramid=2 / b_adapt=1 / b_bias=0 / direct=3 / weightb=1 / open_gop=0 / weightp=2 / keyint=48 / keyint_min=25 / scenecut=0 / intra_refresh=0 / rc_lookahead=50 / rc=abr / mbtree=1 / bitrate=8000 / ratetol=1.0 / qcomp=0.60 / qpmin=0 / qpmax=69 / qpstep=4 / vbv_maxrate=10000 / vbv_bufsize=20000 / nal_hrd=none / filler=0 / ip_ratio=1.40 / aq=1:1.00<br>
Default : Yes<br>
Forced : No<br>
Color range : Limited<br>
Color primaries : BT.709<br>
Transfer characteristics : BT.709<br>
Matrix coefficients : BT.709<br>
<br>
Audio<br>
ID : 2<br>
Format : AAC LC<br>
Format/Info : Advanced Audio Codec Low Complexity<br>
Codec ID : A_AAC-2<br>
Duration : 1 h 14 min<br>
Bit rate : 132 kb/s<br>
Channel(s) : 2 channels<br>
Channel layout : L R<br>
Sampling rate : 48.0 kHz<br>
Frame rate : 46.875 FPS (1024 SPF)<br>
Compression mode : Lossy<br>
Stream size : 69.2 MiB (2%)<br>
Language : English<br>
Default : Yes<br>
Forced : No</div>
</div><br>
<br>
<div class="bbCodeBlock bbCodeVfcHH HiddenContent">
<div class="attribution type">Hidden Content:</div>
<blockquote>You must reply before you can see the hidden data contained here.</blockquote>
</div>
<div class="messageTextEndMarker">&nbsp;</div>
</blockquote>
</article>]]></description>
                <author><![CDATA[yonatand1230]]></author>
                </item>

                </channel></rss>